<svg xmlns="http://www.w3.org/2000/svg" width="22" height="22" viewBox="0 0 22 22"><g transform="translate(-50 -937)"><g transform="translate(50 937)" fill="#fff" stroke="#e2e2e2" stroke-width="1"><circle cx="11" cy="11" r="11" stroke="none"/><circle cx="11" cy="11" r="10.5" fill="none"/></g><g transform="translate(54.84 943.6)"><path d="M12.312,1.377A1.575,1.575,0,0,0,11.2.269,36.79,36.79,0,0,0,6.286,0,38.232,38.232,0,0,0,1.367.259,1.607,1.607,0,0,0,.259,1.377,16.6,16.6,0,0,0,0,4.4,16.536,16.536,0,0,0,.259,7.425,1.575,1.575,0,0,0,1.367,8.533,36.866,36.866,0,0,0,6.286,8.8,38.232,38.232,0,0,0,11.2,8.543a1.575,1.575,0,0,0,1.108-1.108,16.6,16.6,0,0,0,.259-3.024A15.753,15.753,0,0,0,12.312,1.377Zm0,0" fill="red"/><path d="M204.969,106.254l3.272-1.885-3.272-1.885Zm0,0" transform="translate(-199.936 -99.968)" fill="#fff"/></g></g></svg>