<svg xmlns="http://www.w3.org/2000/svg" xmlns:xlink="http://www.w3.org/1999/xlink" width="22" height="22" viewBox="0 0 22 22"><defs><clipPath id="a"><circle cx="11" cy="11" r="11" transform="translate(296 1970)" fill="#393939"/></clipPath></defs><g transform="translate(-296 -1970)" clip-path="url(#a)"><path d="M19.854,2.25H1.522A1.534,1.534,0,0,0,0,3.792v18.3a1.534,1.534,0,0,0,1.522,1.542H19.854a1.538,1.538,0,0,0,1.527-1.542V3.792A1.538,1.538,0,0,0,19.854,2.25ZM6.462,20.576H3.293v-10.2H6.467v10.2ZM4.878,8.979A1.837,1.837,0,1,1,6.715,7.142,1.838,1.838,0,0,1,4.878,8.979Zm13.463,11.6H15.172V15.613c0-1.184-.024-2.706-1.647-2.706-1.651,0-1.9,1.289-1.9,2.62v5.049H8.452v-10.2h3.04v1.394h.043a3.338,3.338,0,0,1,3-1.647c3.207,0,3.8,2.114,3.8,4.863Z" transform="translate(296.618 1967.75)" fill="#0077b5"/></g></svg>