<svg xmlns="http://www.w3.org/2000/svg" width="90.566" height="78" viewBox="0 0 90.566 78"><g transform="translate(-65 -870)"><path d="M236.2,182.442a4.643,4.643,0,1,0,4.67,4.643A4.643,4.643,0,0,0,236.2,182.442Zm0,7.067a2.425,2.425,0,1,1,2.452-2.425A2.425,2.425,0,0,1,236.2,189.509Z" transform="translate(-125.811 712.962)" fill="#e3000f"/><path d="M100.457,75.864H83.638V74.027a1.177,1.177,0,0,0-.779-1.035L57.207,63.1V55.533H67.13a1.158,1.158,0,0,0,.826-1.913L64.9,50.2l3.056-3.418a1.054,1.054,0,0,0,.186-1.159A1.079,1.079,0,0,0,67.13,45H56.154a1.1,1.1,0,0,0-1.164,1.037V63.2L29.653,72.992a1.123,1.123,0,0,0-.724,1.035v1.836H12.109A1.07,1.07,0,0,0,11,76.926v45.033A1.049,1.049,0,0,0,12.109,123h88.348a1.049,1.049,0,0,0,1.109-1.037V76.926a1.07,1.07,0,0,0-1.109-1.062ZM57.207,47.216h7.442L63.028,48.99a1.879,1.879,0,0,0,0,2.491l1.621,1.834H57.207ZM31.146,74.787,56.283,65.1l25.137,9.69v7.176H31.146ZM37,84.551a1.136,1.136,0,0,0-1.109,1.14,1.423,1.423,0,0,1-.431,1.026,1.368,1.368,0,0,1-1.033.37,1.386,1.386,0,0,1-1.281-1.275,1.343,1.343,0,0,1,.368-1.017,1.358,1.358,0,0,1,1-.428h9.112a1.4,1.4,0,0,1,1.425,1.323,1.349,1.349,0,0,1-.386.988,1.364,1.364,0,0,1-.987.415,1.4,1.4,0,0,1-1.374-1.4A1.137,1.137,0,0,0,41.2,84.552Zm2.833,2.218V106.73H38.17V86.769Zm2.1,22.179a6.674,6.674,0,0,1,.319,1.109H35.732a6.675,6.675,0,0,1,.319-1.109Zm.115-2.218V88.938a3.931,3.931,0,0,0,1.607.37,3.592,3.592,0,0,0,2.588-1.088,3.66,3.66,0,0,0,1.02-2.641,4.349,4.349,0,0,0-.311-1.4H48.37a3.82,3.82,0,0,0-.3,1.726,3.609,3.609,0,0,0,3.358,3.373c.077,0,.12.018.2.018a3.193,3.193,0,0,0,1.335-.262V106.73h-.477a1.126,1.126,0,0,0-.991.631l-.087.177a7.745,7.745,0,0,0-.777,2.519H44.5a7.692,7.692,0,0,0-.778-2.511l-.088-.19a1.123,1.123,0,0,0-.991-.627ZM54.134,84.551a1.136,1.136,0,0,0-1.109,1.14,1.388,1.388,0,0,1-.431,1.011,1.37,1.37,0,0,1-2.314-.891,1.342,1.342,0,0,1,.368-1.017,1.358,1.358,0,0,1,1-.428h9.112a1.4,1.4,0,0,1,1.425,1.323,1.349,1.349,0,0,1-.386.988,1.365,1.365,0,0,1-.987.415,1.4,1.4,0,0,1-1.374-1.4,1.137,1.137,0,0,0-1.109-1.141Zm2.888,2.218V106.73H55.174V86.769Zm-3.837,22.179h5.885a6.676,6.676,0,0,1,.319,1.109H52.867a6.656,6.656,0,0,1,.319-1.109Zm6.054-2.218V88.938a3.81,3.81,0,0,0,1.58.37A3.562,3.562,0,0,0,63.4,88.22a3.652,3.652,0,0,0,1.012-2.64,4.362,4.362,0,0,0-.318-1.4h1.722a3.817,3.817,0,0,0-.3,1.726,3.609,3.609,0,0,0,3.358,3.373c.077,0,.179.018.255.018a4.194,4.194,0,0,0,1.394-.262V106.73h-.6a1.127,1.127,0,0,0-.991.631l-.087.177a7.753,7.753,0,0,0-.777,2.519h-6.43a7.689,7.689,0,0,0-.777-2.51l-.087-.19a1.123,1.123,0,0,0-.991-.628Zm11.386,2.218h5.885a6.674,6.674,0,0,1,.319,1.109H70.308A6.693,6.693,0,0,1,70.627,108.948Zm2.106-2.218V86.769H74.4V106.73Zm3.041-22.179h-4.2a1.136,1.136,0,0,0-1.109,1.14,1.374,1.374,0,0,1-2.745.116,1.339,1.339,0,0,1,.368-1.017,1.357,1.357,0,0,1,1-.425H78.2a1.4,1.4,0,0,1,1.425,1.323,1.343,1.343,0,0,1-.386.985,1.366,1.366,0,0,1-.987.416,1.4,1.4,0,0,1-1.374-1.4,1.136,1.136,0,0,0-1.108-1.14ZM13.218,78.082h15.71v2.772H13.218Zm16.265,37.705h-.92a1.046,1.046,0,0,0-1.113,1.027v3.963H13.218V83.072h15.71v.084a1.117,1.117,0,0,0,1.194,1.025h1.114a3.819,3.819,0,0,0-.3,1.726A3.609,3.609,0,0,0,34.29,89.28c.077,0,.185.018.262.018a4.227,4.227,0,0,0,1.4-.262V106.73h-.607a1.126,1.126,0,0,0-.991.631l-.087.177a7.744,7.744,0,0,0-.777,2.519h-.06a3.97,3.97,0,0,0-3.946,4.022Zm53.416,4.99H29.668V118H35.4a1.109,1.109,0,0,0,0-2.218H31.7v-1.708a1.75,1.75,0,0,1,1.728-1.8H79.137a1.75,1.75,0,0,1,1.728,1.8v1.708H43.16a1.109,1.109,0,1,0,0,2.218H82.9Zm16.45,0H85.116v-3.963A1.046,1.046,0,0,0,84,115.787h-.92v-1.708a3.97,3.97,0,0,0-3.946-4.022h-.063a7.689,7.689,0,0,0-.777-2.51l-.087-.19a1.124,1.124,0,0,0-.991-.628h-.6V88.938a3.959,3.959,0,0,0,1.614.37,3.6,3.6,0,0,0,2.591-1.088,3.66,3.66,0,0,0,1.021-2.64,4.334,4.334,0,0,0-.309-1.4h.914a1.117,1.117,0,0,0,1.194-1.025v-.084h15.71Zm0-39.923H83.638V78.082h15.71Z" transform="translate(54 825.003)" fill="#e3000f"/></g></svg>