<svg xmlns="http://www.w3.org/2000/svg" width="95.584" height="78" viewBox="0 0 95.584 78"><g transform="translate(-5 -51.174)"><path d="M201.591,64.937l-1.1,6.343a1.142,1.142,0,0,0,1.655,1.208l5.705-2.982,5.691,3.01a1.142,1.142,0,0,0,1.661-1.2l-1.073-6.348,4.621-4.483a1.142,1.142,0,0,0-.628-1.95l-6.368-.942-2.835-5.78a1.142,1.142,0,0,0-1.023-.639h0a1.142,1.142,0,0,0-1.023.634L204,57.574l-6.373.91a1.142,1.142,0,0,0-.638,1.947Zm3.329-5.185a1.142,1.142,0,0,0,.862-.623l2.1-4.231,2.08,4.24a1.142,1.142,0,0,0,.859.627l4.673.69-3.391,3.29a1.142,1.142,0,0,0-.331,1.01l.787,4.658L208.384,67.2a1.142,1.142,0,0,0-1.063,0l-4.186,2.188.81-4.654a1.142,1.142,0,0,0-.326-1.012l-3.374-3.305Z" transform="translate(-155.157 0)" fill="#e3000f"/><path d="M359.856,92.706l-.97,5.572a1.142,1.142,0,0,0,1.655,1.208l5.013-2.62,5,2.644a1.142,1.142,0,0,0,1.661-1.2l-.943-5.577,4.06-3.938a1.142,1.142,0,0,0-.628-1.95l-5.595-.827-2.491-5.078a1.142,1.142,0,0,0-1.023-.639h0a1.142,1.142,0,0,0-1.023.634L362.052,86l-5.6.8a1.142,1.142,0,0,0-.638,1.947Zm3.114-4.527a1.143,1.143,0,0,0,.862-.623l1.753-3.53,1.736,3.539a1.142,1.142,0,0,0,.859.627l3.9.576-2.829,2.745a1.143,1.143,0,0,0-.331,1.01l.657,3.887-3.484-1.843a1.141,1.141,0,0,0-1.063,0l-3.493,1.826.676-3.884a1.142,1.142,0,0,0-.326-1.012l-2.816-2.757Z" transform="translate(-283.74 -23.582)" fill="#e3000f"/><path d="M53.978,92.706l-.97,5.572a1.142,1.142,0,0,0,1.655,1.208l5.012-2.62,5,2.644a1.142,1.142,0,0,0,1.661-1.2l-.943-5.577L69.453,88.8a1.142,1.142,0,0,0-.628-1.95l-5.6-.827-2.49-5.078a1.142,1.142,0,0,0-1.023-.639h0a1.142,1.142,0,0,0-1.023.634L56.174,86l-5.6.8a1.142,1.142,0,0,0-.638,1.947Zm3.114-4.527a1.142,1.142,0,0,0,.863-.623l1.753-3.53,1.736,3.539a1.142,1.142,0,0,0,.859.627l3.9.576-2.829,2.745a1.142,1.142,0,0,0-.331,1.01l.657,3.887-3.484-1.843a1.141,1.141,0,0,0-1.063,0l-3.494,1.825.676-3.884a1.142,1.142,0,0,0-.326-1.012L53.19,88.737Z" transform="translate(-36.103 -23.582)" fill="#e3000f"/><path d="M217.051,187.146a9.171,9.171,0,0,0-9.16,9.16v5.345a9.16,9.16,0,1,0,18.32,0v-5.345A9.171,9.171,0,0,0,217.051,187.146Zm6.875,14.506a6.875,6.875,0,1,1-13.751,0v-5.345a6.875,6.875,0,1,1,13.751,0Z" transform="translate(-164.259 -110.082)" fill="#e3000f"/><path d="M369.45,210.936a8.441,8.441,0,0,0-8.431,8.431v4.859a8.431,8.431,0,0,0,16.863,0v-4.859A8.441,8.441,0,0,0,369.45,210.936Zm6.146,13.29a6.146,6.146,0,0,1-12.293,0v-4.859a6.146,6.146,0,1,1,12.293,0Z" transform="translate(-288.231 -129.342)" fill="#e3000f"/><path d="M90.937,314.358H87.866a1.039,1.039,0,0,1-1.038-1.038,1.142,1.142,0,0,0-2.218-.386l-1.222,3.4a2.288,2.288,0,0,1-4.316-.028L77.9,312.921a1.142,1.142,0,0,0-1.888-.435l-.028.027a1.142,1.142,0,0,0-.335.808,1.039,1.039,0,0,1-1.038,1.038H71.5a9.732,9.732,0,0,0-1.472.112,10.445,10.445,0,0,0-6.546-2.3H60.1a1.257,1.257,0,0,1-1.257-1.257,1.142,1.142,0,0,0-2.218-.386l-1.343,3.744a2.631,2.631,0,0,1-4.963-.032l-1.285-3.729a1.142,1.142,0,0,0-1.889-.435l-.03.03a1.143,1.143,0,0,0-.334.807,1.257,1.257,0,0,1-1.257,1.257H42.1a10.444,10.444,0,0,0-6.546,2.3,9.723,9.723,0,0,0-1.472-.113H31.012a1.039,1.039,0,0,1-1.038-1.038,1.142,1.142,0,0,0-2.218-.386l-1.221,3.4a2.288,2.288,0,0,1-4.316-.028l-1.168-3.389a1.142,1.142,0,0,0-1.888-.435l-.027.027a1.142,1.142,0,0,0-.334.808,1.039,1.039,0,0,1-1.038,1.038H14.646A9.657,9.657,0,0,0,5,324v13.363a1.142,1.142,0,0,0,1.142,1.143h93.3a1.142,1.142,0,0,0,1.142-1.143V324a9.657,9.657,0,0,0-9.646-9.646ZM31.6,322.668v13.557H7.285V324a7.37,7.37,0,0,1,7.361-7.361h3.116a3.3,3.3,0,0,0,1.939-.625l.357,1.038a4.573,4.573,0,0,0,8.627.055l.391-1.09a3.306,3.306,0,0,0,1.828.622l.063,0h2.546A10.436,10.436,0,0,0,31.6,322.668Zm40.089,13.557H33.89V322.668a8.221,8.221,0,0,1,8.212-8.211h3.427a3.525,3.525,0,0,0,2.19-.759l.444,1.29a4.915,4.915,0,0,0,9.274.059l.483-1.345a3.522,3.522,0,0,0,2.071.754l.064,0h3.427a8.221,8.221,0,0,1,8.212,8.212Zm26.6,0H73.979V322.668a10.436,10.436,0,0,0-1.909-6.025h2.546a3.3,3.3,0,0,0,1.938-.625l.357,1.038a4.573,4.573,0,0,0,8.627.055l.391-1.09a3.306,3.306,0,0,0,1.828.622l.063,0h3.116A7.37,7.37,0,0,1,98.3,324Z" transform="translate(0 -209.336)" fill="#e3000f"/><path d="M62.422,219.367v4.859a8.431,8.431,0,0,0,16.863,0v-4.859a8.431,8.431,0,1,0-16.863,0Zm14.578,0v4.859a6.146,6.146,0,1,1-12.293,0v-4.859a6.146,6.146,0,0,1,12.293,0Z" transform="translate(-46.489 -129.342)" fill="#e3000f"/></g></svg>