<svg xmlns="http://www.w3.org/2000/svg" width="25" height="19.441" viewBox="0 0 25 19.441"><path d="M12.167,7.3l-8,6.59V21a.694.694,0,0,0,.694.694l4.863-.013a.694.694,0,0,0,.691-.694V16.834a.694.694,0,0,1,.694-.694h2.778a.694.694,0,0,1,.694.694v4.151a.694.694,0,0,0,.694.7l4.862.013A.694.694,0,0,0,20.831,21V13.882l-8-6.585A.529.529,0,0,0,12.167,7.3Zm12.639,4.479L21.178,8.786V2.774a.521.521,0,0,0-.521-.521h-2.43a.521.521,0,0,0-.521.521V5.926l-3.886-3.2a2.083,2.083,0,0,0-2.647,0L.188,11.776a.521.521,0,0,0-.069.733l1.107,1.345a.521.521,0,0,0,.734.071L12.167,5.518a.529.529,0,0,1,.664,0L23.04,13.926a.521.521,0,0,0,.733-.069l1.107-1.345a.521.521,0,0,0-.074-.735Z" transform="translate(0.001 -2.253)" fill="red"/></svg>