<svg xmlns="http://www.w3.org/2000/svg" width="25" height="24.998" viewBox="0 0 25 24.998"><path d="M28.768,24.076a21,21,0,0,0-4.386-2.935c-1.315-.631-1.8-.618-2.727.052-.774.56-1.276,1.08-2.167.885s-2.649-1.523-4.354-3.221S12.1,15.395,11.912,14.5s.332-1.393.885-2.167c.67-.931.69-1.412.052-2.727A20.583,20.583,0,0,0,9.914,5.223c-.957-.957-1.171-.748-1.7-.56a9.666,9.666,0,0,0-1.555.827A4.692,4.692,0,0,0,4.792,7.461c-.371.8-.8,2.291,1.386,6.183a34.5,34.5,0,0,0,6.066,8.09h0l.007.007.007.007h0a34.633,34.633,0,0,0,8.09,6.066C24.238,30,25.729,29.569,26.529,29.2A4.612,4.612,0,0,0,28.5,27.331a9.666,9.666,0,0,0,.827-1.555C29.516,25.248,29.731,25.033,28.768,24.076Z" transform="translate(-4.49 -4.502)" fill="red"/></svg>