<svg xmlns="http://www.w3.org/2000/svg" width="56.122" height="78" viewBox="0 0 56.122 78"><path d="M132.483,46.751a24.962,24.962,0,0,0-7.294-9.452l.278-14.579,5.974-2.079.061-.032a1.973,1.973,0,0,0-.271-3.615L109.8,10.256a4.769,4.769,0,0,0-2.961-.035l-24.59,6.75-.033.01a1.973,1.973,0,0,0-.259,3.657l.05.024,2.527.864V31.912a.951.951,0,0,0,1.9,0V22.178l3.158,1.08.193,14.077a25.445,25.445,0,0,0-7.844,9.205A29.029,29.029,0,0,0,79,59.694a28.062,28.062,0,1,0,56.122,0A31.319,31.319,0,0,0,132.483,46.751Zm-4.543-3.963a27.084,27.084,0,0,1,5.265,15.955h-9.732a38.623,38.623,0,0,0-1.745-10.956A28.892,28.892,0,0,0,127.94,42.787Zm-1.227-1.473a26.879,26.879,0,0,1-5.633,4.641,29.244,29.244,0,0,0-2.917-5.662l5.317-1.2a2.255,2.255,0,0,0,.607-.243,22.7,22.7,0,0,1,2.626,2.463Zm-18.7,17.428v-6.8a28.437,28.437,0,0,0,12.017-3.207,36.917,36.917,0,0,1,1.541,10.011Zm13.557,1.9a36.646,36.646,0,0,1-1.55,9.944,27.494,27.494,0,0,0-12.007-3.141v-6.8ZM108.012,50.034v-7.45l8.154-1.839a27.187,27.187,0,0,1,3.245,6.171A26.578,26.578,0,0,1,108.012,50.034ZM91.051,38.768a2.215,2.215,0,0,0,.354.117l4.707,1.18A27.963,27.963,0,0,0,93,45.925a26.3,26.3,0,0,1-5.232-4.336,24.631,24.631,0,0,1,3.28-2.822Zm-7.41,8.624A23.276,23.276,0,0,1,86.5,43.009a28.25,28.25,0,0,0,5.86,4.749,38.586,38.586,0,0,0-1.707,10.984h-9.73a26.8,26.8,0,0,1,2.724-11.35ZM86.7,76.253a26.423,26.423,0,0,1-5.78-15.608h9.73a38.366,38.366,0,0,0,1.771,10.938,28.054,28.054,0,0,0-5.72,4.671Zm1.248,1.45a26.162,26.162,0,0,1,5.124-4.284A27.072,27.072,0,0,0,102.2,85.64,26.079,26.079,0,0,1,87.949,77.7Zm18.161,8.146A24.523,24.523,0,0,1,94.736,72.443a25.922,25.922,0,0,1,11.373-3.086Zm0-18.4a27.807,27.807,0,0,0-12,3.165,36.632,36.632,0,0,1-1.559-9.972H106.11Zm0-8.71H92.551a36.928,36.928,0,0,1,1.5-10.025,28.292,28.292,0,0,0,12.061,3.216Zm0-8.713a26.413,26.413,0,0,1-11.441-3.136A26,26,0,0,1,98.1,40.562l8.012,2.009Zm.847-9.208-15.1-3.786A.346.346,0,0,1,91.6,36.7L91.5,23.91l13.743,4.7a4.794,4.794,0,0,0,3.424-.044l5.046-1.757a.951.951,0,1,0-.625-1.8l-5.066,1.764-.042.016a2.9,2.9,0,0,1-2.088.029L88.857,20.995l10.949-2.7a.951.951,0,1,0-.455-1.847L85.527,19.856l-2.772-.948a.065.065,0,0,1-.013-.053c0-.039.016-.05.033-.056l24.584-6.75.035-.01a2.88,2.88,0,0,1,1.8.02L130.625,18.8c.016.006.032.016.035.056a.072.072,0,0,1-.01.048l-10.556,3.675a.951.951,0,1,0,.625,1.8l2.834-.986-.227,13.5a.374.374,0,0,1-.274.361l-15.864,3.578a.516.516,0,0,1-.231,0Zm1.055,28.529A25.61,25.61,0,0,1,119.4,72.415a24.531,24.531,0,0,1-11.385,13.433Zm3.913,16.289a27.078,27.078,0,0,0,9.134-12.247,25.881,25.881,0,0,1,5.116,4.306A26.079,26.079,0,0,1,111.925,85.64Zm15.5-9.392a27.774,27.774,0,0,0-5.714-4.693,38.385,38.385,0,0,0,1.762-10.91h9.73a26.423,26.423,0,0,1-5.778,15.6Z" transform="translate(-79 -10.002)" fill="#e31220"/></svg>