<svg xmlns="http://www.w3.org/2000/svg" width="150" height="150" viewBox="0 0 150 150">
  <g id="Group_22" data-name="Group 22" transform="translate(357 -253)">
    <rect id="Rectangle_1" data-name="Rectangle 1" width="150" height="150" transform="translate(-357 253)" fill="none"/>
    <g id="cloud-computing" transform="translate(-357 214.968)">
      <g id="Group_21" data-name="Group 21" transform="translate(0 55.032)">
        <g id="Group_20" data-name="Group 20">
          <path id="Path_6" data-name="Path 6" d="M124.977,94.047a51.557,51.557,0,0,0-101.426,8.811,28.12,28.12,0,0,0,4.687,55.866H51.673V149.35H28.238a18.747,18.747,0,1,1,0-37.494,4.687,4.687,0,0,0,4.687-4.687,42.183,42.183,0,0,1,83.569-8.2,4.687,4.687,0,0,0,3.984,3.749,23.434,23.434,0,0,1-3.187,46.633H98.542v9.373H117.29a32.807,32.807,0,0,0,7.687-64.677Z" transform="translate(0 -55.032)" fill="#242424"/>
          <path id="Path_7" data-name="Path 7" d="M199.79,250.375,181.035,269.13l6.611,6.611L198.431,265V309.97h9.378V265l10.738,10.738,6.611-6.611L206.4,250.375A4.689,4.689,0,0,0,199.79,250.375Z" transform="translate(-128.012 -192.212)" fill="#242424"/>
        </g>
      </g>
    </g>
  </g>
</svg>
