<svg xmlns="http://www.w3.org/2000/svg" xmlns:xlink="http://www.w3.org/1999/xlink" width="150" height="150" viewBox="0 0 150 150">
  <defs>
    <clipPath id="clip-path">
      <rect id="Rectangle_1" data-name="Rectangle 1" width="150" height="150" transform="translate(-30 245)" fill="none"/>
    </clipPath>
  </defs>
  <g id="Mask_Group_1" data-name="Mask Group 1" transform="translate(30 -245)" clip-path="url(#clip-path)">
    <g id="employee" transform="translate(-106.447 245)">
      <g id="Group_1" data-name="Group 1" transform="translate(83.447)">
        <path id="Path_1" data-name="Path 1" d="M214.622,161.185a2.914,2.914,0,0,0-2.914,2.914v27.4a1.611,1.611,0,0,1-1.609,1.609H194.434V135.719a2.914,2.914,0,1,0-5.828,0v57.387H157.062l9.147-10.063a5.224,5.224,0,0,0,1.26-4.191c0-.03-.009-.059-.014-.089l-8.712-51.469,2.347-3.533c1.3.922,2.3,1.809,4.172,1.809a5.1,5.1,0,0,0,4.567-2.824h0l9.189-18.417,20.933,8.107c.757.325,11.754,5.277,11.754,18.354V150.5a2.914,2.914,0,1,0,5.828,0V130.789c0-17.23-14.753-23.493-15.38-23.751l-.056-.022-34.84-13.493V85.352a27.3,27.3,0,0,0,10.334-17.961A12.614,12.614,0,0,0,185,64.368a12.372,12.372,0,0,0,1.291-17.457V36.116a36.116,36.116,0,1,0-72.232,0V47.194a11.7,11.7,0,0,0-3,7.8,12.349,12.349,0,0,0,4.3,9.375,12.607,12.607,0,0,0,7.406,3.021,27.016,27.016,0,0,0,10.925,18.393v7.74l-34.8,13.492-.055.022c-.628.258-15.381,6.521-15.381,23.751V191.5a7.446,7.446,0,0,0,7.438,7.437h27.764a2.914,2.914,0,1,0,0-5.828h-6.27V135.719a2.914,2.914,0,1,0-5.828,0v57.387H90.885a1.611,1.611,0,0,1-1.609-1.609V130.788c0-13.121,11.071-18.062,11.751-18.352l20.917-8.109,9.19,18.418a5.1,5.1,0,0,0,4.568,2.825c1.865,0,2.855-.874,4.172-1.809l2.347,3.533-8.712,51.47c-.005.029-.009.058-.014.088a5.225,5.225,0,0,0,1.26,4.192l9.147,10.063H132.249a2.914,2.914,0,0,0,0,5.828H210.1a7.446,7.446,0,0,0,7.438-7.437V164.1A2.915,2.915,0,0,0,214.622,161.185Zm-41.061-58.971-8.567,17.17-10.3-7.318L165.273,99Zm-17.225,18.17-2.222,3.344h-7.267l-2.222-3.344,5.855-4.159ZM139.512,94.463V89.01A29.567,29.567,0,0,0,150.531,91.1a27.358,27.358,0,0,0,10.9-2.271v5.66L150.481,108Zm43.959-39.469a6.529,6.529,0,0,1-2.269,4.955,6.787,6.787,0,0,1-3.365,1.549V48.491A6.592,6.592,0,0,1,183.471,54.994Zm-60.952,6.5a6.584,6.584,0,0,1-5.634-6.5c0-3.115,2.583-5.651,5.634-6.356Zm.157-18.8a14.408,14.408,0,0,0-2.785.627V36.116a30.287,30.287,0,1,1,60.575,0v7.01a12.955,12.955,0,0,0-2.627-.508c0-2.812.025-2.269-9.174-12.159a5.185,5.185,0,0,0-6.62-.807A56.183,56.183,0,0,1,128.079,38.8,5.182,5.182,0,0,0,122.676,42.7Zm5.672,21.093V44.654a62.274,62.274,0,0,0,36.422-9.824c4.219,4.53,6.5,6.906,7.24,7.809V63.792a21.517,21.517,0,0,1-21.478,21.477C137.246,85.27,128.348,74.963,128.348,63.793Zm7.621,55.591-8.567-17.17,8.273-3.2,10.584,13.065C140.877,115.9,136.457,119.037,135.969,119.384Zm3.343,60.008,8.435-49.836h5.467l8.435,49.836-11.168,12.287Z" transform="translate(-83.447)" fill="#242424"/>
      </g>
    </g>
  </g>
</svg>
