<svg xmlns="http://www.w3.org/2000/svg" width="150" height="150" viewBox="0 0 150 150">
  <g id="Group_2" data-name="Group 2" transform="translate(47 -245)">
    <rect id="Rectangle_1" data-name="Rectangle 1" width="150" height="150" transform="translate(-47 245)" fill="none"/>
    <g id="college-graduation" transform="translate(-47 222.352)">
      <g id="Layer_5_59_" transform="translate(0 36.648)">
        <g id="Group_1" data-name="Group 1" transform="translate(0 0)">
          <path id="Path_1" data-name="Path 1" d="M114.139,230.351a19.36,19.36,0,0,1-19.221,0l-43.51-26.884s-3.927-2.425-3.927,3.069v26.845c0,14.142,25.54,29.387,57.046,29.387s57.046-15.245,57.046-29.387V205.022c0-4.41-2.792-2.255-2.792-2.255Z" transform="translate(-29.529 -140.324)" fill="#242424"/>
          <path id="Path_2" data-name="Path 2" d="M147.488,78.754c3.349-2.049,3.349-5.4,0-7.45l-66.4-33.119a12.835,12.835,0,0,0-12.179,0L2.512,71.3c-3.349,2.049-3.349,5.4,0,7.45l66.4,40.619a12.835,12.835,0,0,0,12.179,0" transform="translate(0 -36.648)" fill="#242424"/>
          <path id="Path_3" data-name="Path 3" d="M366.847,232.484v-45.23s.031-2.142-1.24-1.435a36.948,36.948,0,0,0-4.4,2.727c-1.017.884-.788,2.867-.788,2.867v41.071a1.206,1.206,0,0,1-.74,1,7.814,7.814,0,1,0,7.881-.016A1.165,1.165,0,0,1,366.847,232.484Z" transform="translate(-222.134 -130.023)" fill="#242424"/>
        </g>
      </g>
    </g>
  </g>
</svg>
