<svg xmlns="http://www.w3.org/2000/svg" width="20" height="20" viewBox="0 0 20 20">
  <g id="Group_14048" data-name="Group 14048" transform="translate(-486.999 -23.999)">
    <path id="Path_990" data-name="Path 990" d="M10.148.489,11.374.026a.414.414,0,0,1,.4.064L12.8.91a.413.413,0,0,0,.278.09L14.388.938a.414.414,0,0,1,.365.186l.72,1.1a.413.413,0,0,0,.237.172l1.264.346a.413.413,0,0,1,.29.29l.346,1.264a.413.413,0,0,0,.172.237l1.1.72a.414.414,0,0,1,.186.365L19,6.922a.414.414,0,0,0,.09.278l.819,1.023a.414.414,0,0,1,.064.4l-.463,1.226a.414.414,0,0,0,0,.292l.463,1.226a.413.413,0,0,1-.064.4L19.091,12.8a.413.413,0,0,0-.09.278l.062,1.309a.414.414,0,0,1-.186.365l-1.1.72a.413.413,0,0,0-.172.237l-.346,1.264a.413.413,0,0,1-.29.29l-1.264.346a.413.413,0,0,0-.237.172l-.72,1.1a.414.414,0,0,1-.365.186L13.079,19a.414.414,0,0,0-.278.09l-1.023.819a.414.414,0,0,1-.4.064l-1.226-.463a.414.414,0,0,0-.292,0l-1.226.463a.413.413,0,0,1-.4-.064L7.2,19.089A.413.413,0,0,0,6.924,19l-1.309.062a.414.414,0,0,1-.365-.186l-.72-1.1a.413.413,0,0,0-.237-.172l-1.264-.346a.413.413,0,0,1-.29-.29l-.346-1.264a.413.413,0,0,0-.172-.237l-1.1-.72a.414.414,0,0,1-.186-.365L1,13.077a.413.413,0,0,0-.09-.278L.092,11.776a.414.414,0,0,1-.064-.4l.463-1.226a.414.414,0,0,0,0-.292L.028,8.627a.414.414,0,0,1,.064-.4L.912,7.2A.413.413,0,0,0,1,6.922L.94,5.613a.414.414,0,0,1,.186-.365l1.1-.72a.413.413,0,0,0,.172-.237l.346-1.264a.413.413,0,0,1,.29-.29l1.264-.346A.413.413,0,0,0,4.53,2.22l.72-1.1A.414.414,0,0,1,5.614.938L6.924,1A.413.413,0,0,0,7.2.91L8.225.09a.414.414,0,0,1,.4-.064L9.855.489A.413.413,0,0,0,10.148.489Z" transform="translate(486.998 24)" fill="#fff"/>
    <path id="Path_991" data-name="Path 991" d="M13.122,80.422A10.4,10.4,0,0,1,3.655,65.706l-.626.171a.413.413,0,0,0-.29.29l-.346,1.264a.414.414,0,0,1-.172.237l-1.1.72a.414.414,0,0,0-.186.365L1,70.062a.414.414,0,0,1-.09.278L.092,71.362a.413.413,0,0,0-.064.4l.463,1.226a.414.414,0,0,1,0,.292L.028,74.512a.413.413,0,0,0,.064.4l.819,1.023a.413.413,0,0,1,.09.278L.94,77.526a.414.414,0,0,0,.186.365l1.1.72a.414.414,0,0,1,.172.237l.346,1.264a.414.414,0,0,0,.29.29l1.264.346a.413.413,0,0,1,.237.172l.72,1.1a.414.414,0,0,0,.365.186l1.309-.062a.414.414,0,0,1,.278.09l1.023.819a.414.414,0,0,0,.4.064l1.226-.463a.414.414,0,0,1,.292,0l1.226.463a.413.413,0,0,0,.4-.064l1.023-.819a.414.414,0,0,1,.278-.09l1.309.062a.414.414,0,0,0,.365-.186l.72-1.1a.414.414,0,0,1,.237-.172l1.264-.346a.413.413,0,0,0,.29-.29l.171-.626A10.362,10.362,0,0,1,13.122,80.422Z" transform="translate(486.998 -39.14)" fill="#fff"/>
    <circle id="Ellipse_166" data-name="Ellipse 166" cx="7.976" cy="7.976" r="7.976" transform="translate(489.023 26.023)" fill="#4517d2"/>
    <g id="Group_14035" data-name="Group 14035" transform="translate(492.145 28.62)">
      <path id="Path_993" data-name="Path 993" d="M134.142,208.975h-2.081a.347.347,0,0,1-.347-.347V203.08a.347.347,0,0,1,.347-.347h2.081a.347.347,0,0,1,.347.347v5.549A.347.347,0,0,1,134.142,208.975Z" transform="translate(-131.714 -199.434)" fill="#fff"/>
      <path id="Path_994" data-name="Path 994" d="M227.077,122.359a.9.9,0,0,0-.912-.778h-2.952a3.746,3.746,0,0,0,1.435-2.251.909.909,0,0,0-.849-1.048.863.863,0,0,0-.875.863,2.815,2.815,0,0,1-1.948,1.651l-.006,0a.739.739,0,0,0-.48.712v5.62a.347.347,0,0,0,.347.347h4.473a.719.719,0,0,0,.721-.577.694.694,0,0,0-.684-.81h.31a.719.719,0,0,0,.721-.577.694.694,0,0,0-.684-.81H226a.719.719,0,0,0,.721-.577.694.694,0,0,0-.684-.81h.173A.867.867,0,0,0,227.077,122.359Z" transform="translate(-217.023 -118.283)" fill="#fff"/>
    </g>
  </g>
</svg>
