<svg xmlns="http://www.w3.org/2000/svg" width="200" height="50.176" viewBox="0 0 200 50.176">
  <g id="Group_250" data-name="Group 250" transform="translate(-45.312 -658.657)">
    <path id="Path_2514" data-name="Path 2514" d="M68.779,687.144c-.018-.758-.36-1.027-.936-1.062v-.451l.146-.147v-.679l-.422-.2v-2.462c.478-.754-.073-1.139-.073-1.139q-.056-1.066-.111-2.131h0l-.2-.2V676.61l-.128-.2h0l-.128.2v2.059l-.2.2h0q-.055,1.067-.11,2.131s-.551.385-.074,1.139V684.6l-.422.2v.679l.147.147v.532c-.836.142-.928.223-.938.98-.918.238-1.114,1.944-.33,2.272,0,0-.239,1.052.624,1.139,0,0,.151,4.293-.052,8.737.917.035,1.87.029,2.827-.013-.077-4.428,0-8.724,0-8.724.858,0,.711-1.139.711-1.139.627-.1.628-2.142-.331-2.272M62.864,701.73a27.634,27.634,0,0,0,11.106-1.263,23.958,23.958,0,0,0,8.766-5.021c.251-.333-.579.165-.62.192-4.062,2.7-11.667,5.125-19.719,3.966Zm20.875-9.067,2.252.28c-.334.061-1.085.773-1.4.96-.226.134-.612-.07-.882-.156-.462-.147-.483-.134-.846.113.19.192.5.339.67.484l.127.124c-.373.025-.6-.046-.744.213l.616.035-.1.287c.367.094.393-.041.65-.05.235-.007-.082.148.207,0,.092-.047.088-.1.215-.182s2.277-1.173,3.1-1.7c-.113.133-.473.854-.246,1.05.274-.309.45-.64.71-.977.982-1.276.516-.595,1.788-1.642.322-.265.754-.635.673-1.024a2.535,2.535,0,0,0-1.742.391c-.459.3-.927.631-1.348.947-.488.367-1.016.316-1.878.393-.349.03-.7.069-1.052.1C84,692.356,83.895,692.279,83.739,692.662Zm3.435-25.392-5.984,3.493c-1.023-1.793-2.06-4.152-3-6.1a58.494,58.494,0,0,0-3.023-6.006L69.4,670.619l-6.041-3.3.412,16.175c-1.494-1.286-4.817-5.4-6.176-6.01L55.3,683.037l-9.988-3.607,5.671,10.819a44.551,44.551,0,0,0-5.381,2.594,38.974,38.974,0,0,0,3.345,2.657l6.815,5.334c.535.411,1.142.893,1.715,1.326.3.229.53.427.8.644a7.227,7.227,0,0,1,.823.636l.036,5.391,4.242,0c.245-.274.731-.616.877-.931a19.2,19.2,0,0,0,1.111-5.574,25.363,25.363,0,0,0,3.1-.172,45.272,45.272,0,0,0,.425,5.312c.076.439.656.976.885,1.361l3.4,0c.234-.273.7-.612.827-.924A29.3,29.3,0,0,0,75,700.592c.717-.264,1.416-.556,2.09-.874.09-.043.322-.161.643-.335a77.124,77.124,0,0,0,.9,8.082c.1.437.7.97.947,1.354l2.963,0c.235-.321.683-.738.754-1.084A67.077,67.077,0,0,0,84.3,697.307l1.765-.689c-.131,3.342.147,8.916,1.3,11.488a3.215,3.215,0,0,0,.665.708l3.405,0c0-.591-.056-4.858.065-5.233.159-.491,11.978-9.438,13.464-10.729a43.474,43.474,0,0,0-5.378-2.6c.452-1.606,4.666-8.478,5.643-10.892L95.251,683a36.573,36.573,0,0,0-2.389-5.51c-1.322,1.016-7.3,6.453-7.936,6.763Zm-12.1,20.759c.118,1.952.162,6.164.022,10.265.751-.218,1.614-.513,2.492-.853-.241-3.48-.42-6.88-.488-8.608Z" transform="translate(0)" fill="red" fill-rule="evenodd"/>
    <path id="Path_2515" data-name="Path 2515" d="M222.92,693.476v-8.9a.869.869,0,0,0-.869-.87h-7.06a.869.869,0,0,0-.869.87v8.9h0v.251a.917.917,0,0,1-.182.573.874.874,0,0,1-.177.171.913.913,0,0,1-.18.1h0l-.011,0a.87.87,0,0,1-.315.059h-3.5a.864.864,0,0,1-.357-.077h0l-.015-.007-.005,0-.013-.006-.006,0-.013-.007,0,0a.868.868,0,0,1-.3-.274.928.928,0,0,1-.152-.528V669.335a.931.931,0,0,1,.153-.531.881.881,0,0,1,.265-.25l.017-.01c.022-.013.044-.025.067-.035l0,0,.01,0,.011,0,0,0a.865.865,0,0,1,.332-.067h3.513a.862.862,0,0,1,.292.052l.007,0,.008,0a.894.894,0,0,1,.214.12.869.869,0,0,1,.155.152.916.916,0,0,1,.187.579v.251h0v8a.869.869,0,0,0,.869.87h7.06a.869.869,0,0,0,.869-.87v-8h0v-.251a.924.924,0,0,1,.174-.562.894.894,0,0,1,.191-.186h0l.006,0a.893.893,0,0,1,.168-.091h0l.012,0a.864.864,0,0,1,.31-.059H227.3a.866.866,0,0,1,.313.06h0l.013.005.012.005h0a.923.923,0,0,1,.123.066.877.877,0,0,1,.236.226l0,0h0a.929.929,0,0,1,.159.541v.251h0v23.887h0v.251a.929.929,0,0,1-.157.538.88.88,0,0,1-.261.245c-.023.014-.046.026-.069.038l-.014.007-.006,0-.009,0-.014.006h0a.86.86,0,0,1-.337.068h-2.78c-.18,0-.341.008-.485.007v-.007h-.248c-.049,0-.095-.007-.139-.011a.863.863,0,0,1-.7-.693,2.784,2.784,0,0,1-.019-.313v-.143Zm19.455,1.422a13.342,13.342,0,0,1-1.8-.112,12.361,12.361,0,0,1-3.463-.992,9.907,9.907,0,0,1-2.789-1.891,8.517,8.517,0,0,1-1.891-2.752,9.725,9.725,0,0,1-.768-3.538V669.338a.93.93,0,0,1,.155-.535.867.867,0,0,1,.349-.294h0l.013-.006.008,0,.007,0a.855.855,0,0,1,.33-.067h3.513a.858.858,0,0,1,.309.058.912.912,0,0,1,.195.106.875.875,0,0,1,.182.177.92.92,0,0,1,.178.567v.251h0v15.575a4.26,4.26,0,0,0,.393,1.89,4.005,4.005,0,0,0,1.048,1.348,4.764,4.764,0,0,0,1.554.842,7.806,7.806,0,0,0,1.86.37.9.9,0,0,1,.1.013,1.431,1.431,0,0,0,.177.028h.749a1.422,1.422,0,0,0,.177-.028.9.9,0,0,1,.1-.013,7.808,7.808,0,0,0,1.859-.37,4.992,4.992,0,0,0,1.573-.842,3.9,3.9,0,0,0,1.067-1.348,4.259,4.259,0,0,0,.393-1.89V669.335a.929.929,0,0,1,.154-.53.875.875,0,0,1,.265-.25q.042-.025.084-.045l0,0,.011,0,.011,0,0,0a.864.864,0,0,1,.331-.067h3.513a.864.864,0,0,1,.293.052l0,0,.01,0a.9.9,0,0,1,.2.112l0,0,0,0a.872.872,0,0,1,.161.158.914.914,0,0,1,.184.576v.251h0v16.024a9.655,9.655,0,0,1-.767,3.557,8.8,8.8,0,0,1-1.891,2.752,9.558,9.558,0,0,1-2.826,1.909,12.031,12.031,0,0,1-3.538.955l-1.2.109c-.026,0-.052,0-.079,0Zm32.745-1.168V682.7a.869.869,0,0,0-1.612-.451l-.017.028q-.842,1.385-1.7,2.77t-1.7,2.733q-.433.692-.831,1.345a.869.869,0,0,1-1.476.013l-4.308-6.8a.869.869,0,0,0-1.6.465v10.92a.93.93,0,0,1-.154.534.866.866,0,0,1-.282.259l-.012.007,0,0-.014.008,0,0-.013.006-.006,0-.01,0-.01,0-.006,0a.863.863,0,0,1-.355.076h-3.428a.871.871,0,0,1-.355-.076l0,0-.012-.005-.008,0-.008,0-.01-.005-.008,0-.01-.006-.012-.007,0,0a.876.876,0,0,1-.283-.26.929.929,0,0,1-.153-.533v-24.39a.927.927,0,0,1,.155-.534.871.871,0,0,1,.263-.248.923.923,0,0,1,.086-.046h0l.013-.006.009,0,.006,0a.868.868,0,0,1,.331-.067h2.7a.875.875,0,0,1,.194.021,1.09,1.09,0,0,1,.563.418l.439.7.013.021L267.8,679.7a.869.869,0,0,0,1.47.006q1.583-2.483,3.191-5.076,1.851-2.986,3.637-5.793a.9.9,0,0,1,.052-.074,1.164,1.164,0,0,1,.24-.209.867.867,0,0,1,.434-.12H279.5a.863.863,0,0,1,.331.067l0,0,.011,0,.011,0,0,0c.023.01.046.022.068.035l.017.01a.871.871,0,0,1,.264.249.927.927,0,0,1,.154.533v24.392a.93.93,0,0,1-.152.529.875.875,0,0,1-.3.273l-.005,0-.013.007-.007,0-.012.006-.006,0-.015.007h0a.864.864,0,0,1-.357.077h-3.534A.87.87,0,0,1,275.12,693.729Zm8.747,0v-24.39a.927.927,0,0,1,.154-.534.872.872,0,0,1,.264-.249q.042-.025.085-.045l0,0,.011-.005.01,0,0,0a.863.863,0,0,1,.331-.067h9.694a7.181,7.181,0,0,1,2.958.618,8.211,8.211,0,0,1,2.433,1.647,7.584,7.584,0,0,1,2.247,5.41,7.114,7.114,0,0,1-.412,2.321,8.786,8.786,0,0,1-.673,1.507.867.867,0,0,0,.15,1.054A7.264,7.264,0,0,1,302.7,683.2a8.047,8.047,0,0,1,.711,3.388,7.782,7.782,0,0,1-.637,3.145,8.035,8.035,0,0,1-1.741,2.546A8.423,8.423,0,0,1,298.468,694a7.781,7.781,0,0,1-3.145.637H284.706A.87.87,0,0,1,283.867,693.727Zm5.241-4.333h6.215a2.476,2.476,0,0,0,1.123-.262A3.23,3.23,0,0,0,298,687.485a2.891,2.891,0,0,0,.243-1.161,2.31,2.31,0,0,0-.861-1.872,3.131,3.131,0,0,0-2.059-.711h-5.346a.869.869,0,0,0-.869.869Zm0-15.724v3.961a.869.869,0,0,0,.869.869h4.485a2.285,2.285,0,0,0,1.7-.711,2.379,2.379,0,0,0,.693-1.723,2.3,2.3,0,0,0-.693-1.722,2.35,2.35,0,0,0-1.7-.674Zm17.807,19.806V669.332a.926.926,0,0,1,.152-.525.873.873,0,0,1,.284-.263l.014-.008,0,0,.016-.008h0l.015-.008,0,0,.012-.006.008,0,.008,0,.014-.006h0a.863.863,0,0,1,.332-.068h3.513a.885.885,0,0,1,.167.017.872.872,0,0,1,.693.892v.251h0v18.936a.869.869,0,0,0,.869.869h9.793a.866.866,0,0,1,.356.076h0l.014.006.006,0,.01.005.008,0,.01.005.008,0a.874.874,0,0,1,.3.272.929.929,0,0,1,.152.532v3.423a.93.93,0,0,1-.152.531.869.869,0,0,1-.3.272l-.006,0-.012.006-.008,0-.011.005-.006,0-.014.007h0a.862.862,0,0,1-.357.077H307.755a.87.87,0,0,1-.839-.909v-.251Zm20.278,0V669.338a.925.925,0,0,1,.155-.535.875.875,0,0,1,.263-.248.892.892,0,0,1,.086-.046h0l.012-.005.009,0,.006,0a.869.869,0,0,1,.331-.067h14.97a.856.856,0,0,1,.352.077h0l.016.008,0,0,.014.007,0,0a.871.871,0,0,1,.329.3.928.928,0,0,1,.143.5V672.8a.869.869,0,0,1-.869.869H333.3a.869.869,0,0,0-.869.869v3.054a.869.869,0,0,0,.869.87h8.708a.865.865,0,0,1,.356.076l0,0,.013.006.007,0,.01,0,.009,0,.01.005.008,0a.871.871,0,0,1,.3.271.932.932,0,0,1,.152.532v3.424a.938.938,0,0,1-.142.517.869.869,0,0,1-.727.392H333.3a.869.869,0,0,0-.869.87v3.952a.869.869,0,0,0,.869.869h9.83a.869.869,0,0,1,.869.869v3.464a.927.927,0,0,1-.153.532.874.874,0,0,1-.3.272l-.008,0-.011.006-.008,0-.01.005-.007,0-.014.007h0a.865.865,0,0,1-.357.077h-15.1a.87.87,0,0,1-.838-.909v-.251Z" transform="translate(-98.692 -5.896)" fill="red"/>
    <path id="Path_2516" data-name="Path 2516" d="M208.829,759.624V744.777l0-.022,0-.021,0-.02,0-.02,0-.019,0-.019,0-.018c0-.006,0-.012,0-.018l0-.017.006-.017.006-.017.006-.016.007-.015.007-.015h0l.007-.015.008-.014a.612.612,0,0,1,.556-.27h1.957a.564.564,0,0,1,.633.579v14.84a.564.564,0,0,1-.631.579h-1.959a.565.565,0,0,1-.632-.6m16.5.014v-7.864a.205.205,0,0,0-.381-.106q-.3.5-.613,1.013-.514.845-1.04,1.691t-1.04,1.668q-.415.664-.778,1.268a.205.205,0,0,1-.349,0l-3.511-5.542a.205.205,0,0,0-.379.109v7.745a.565.565,0,0,1-.632.6h-1.89a.565.565,0,0,1-.632-.594V744.819a.565.565,0,0,1,.633-.6h1.3c.553.009.679.3,1.064.843l4.054,6.47a.205.205,0,0,0,.347,0q1.1-1.722,2.225-3.533.954-1.539,1.879-3c.4-.487.487-.775,1.019-.783h1.291a.565.565,0,0,1,.633.6v.207h0v14.6a.565.565,0,0,1-.632.6H225.96A.564.564,0,0,1,225.328,759.638Zm16.476.179v-8.043a.205.205,0,0,0-.381-.106q-.3.5-.613,1.013-.515.845-1.04,1.691t-1.04,1.668q-.415.664-.778,1.268a.205.205,0,0,1-.349,0l-3.511-5.542a.205.205,0,0,0-.379.109v7.538h-.027v.207a.565.565,0,0,1-.632.6h-1.872a.566.566,0,0,1-.623-.468V744.813a.565.565,0,0,1,.633-.589h1.3c.553.009.68.3,1.064.842l4.054,6.471a.2.2,0,0,0,.347,0q1.1-1.722,2.225-3.533.934-1.508,1.842-2.94c.37-.475.512-.835,1.078-.842h1.255a.565.565,0,0,1,.633.6v.207H245v14.6a.565.565,0,0,1-.632.6h-1.958A.573.573,0,0,1,241.8,759.817Zm5.232-.17V744.8a.564.564,0,0,1,.633-.575h1.957a.565.565,0,0,1,.633.6v14.8a.565.565,0,0,1-.632.6h-1.959A.564.564,0,0,1,247.035,759.647Zm16.1-.076a9.489,9.489,0,0,1-3.668.742,6.883,6.883,0,0,1-3.2-.7,6.584,6.584,0,0,1-2.228-1.84,7.9,7.9,0,0,1-1.314-2.616,10.661,10.661,0,0,1-.434-3.028,10.539,10.539,0,0,1,.434-3.017,7.788,7.788,0,0,1,1.314-2.594,6.519,6.519,0,0,1,2.228-1.817,6.982,6.982,0,0,1,3.2-.686,6.865,6.865,0,0,1,3.451.857,10.014,10.014,0,0,1,2.253,1.774l.142.167a.544.544,0,0,1-.022.792l-.211.186-1.145,1.013-.166.144a.543.543,0,0,1-.813-.042l-.046-.049h0c-.038-.042-.077-.083-.115-.122l0-.005h0a4.949,4.949,0,0,0-1.424-1.08,4.378,4.378,0,0,0-1.851-.434,3.734,3.734,0,0,0-1.794.412,3.642,3.642,0,0,0-1.257,1.1,4.837,4.837,0,0,0-.731,1.577,7.1,7.1,0,0,0-.24,1.851,7.23,7.23,0,0,0,.24,1.863,4.823,4.823,0,0,0,.731,1.588,3.755,3.755,0,0,0,1.257,1.109,3.651,3.651,0,0,0,1.794.423q.389,0,.846-.034c.889-.067,2.514-.552,2.514-1.634v-1.431a.206.206,0,0,0-.205-.206h-3.3a.55.55,0,0,1-.562-.592v-1.665a.563.563,0,0,1,.63-.547h6.021a.561.561,0,0,1,.617.6v4.981C266.07,758.161,264.4,759.031,263.133,759.571ZM273.29,754.1h-1.783a.206.206,0,0,0-.205.206v5.354a.563.563,0,0,1-.631.566h-1.936a.565.565,0,0,1-.632-.595v-14.6h.01v-.207a.565.565,0,0,1,.633-.6H274.3a4.7,4.7,0,0,1,1.9.388,5.007,5.007,0,0,1,2.628,2.64,4.831,4.831,0,0,1,.389,1.931,4.736,4.736,0,0,1-.686,2.5,5.042,5.042,0,0,1-1.623,1.674.2.2,0,0,0-.071.268l3.095,5.91.076.145c.171.424-.277.539-.52.54h-2.61c-.15-.01-.262-.075-.442-.4Zm-1.988-3.2H274.3a1.67,1.67,0,0,0,1.211-.491,1.641,1.641,0,0,0,.5-1.223,1.678,1.678,0,0,0-.5-1.234,1.735,1.735,0,0,0-1.211-.526h-2.789a.205.205,0,0,0-.205.205Zm16.231,6.028c-.086,0-.537-.019-.657.345-.243.659-.025.081-.275.781q-.184.515-.361,1.016l0,0q-.1.285-.2.565h0c-.23.546-.409.585-.677.585h-2.126c-.569,0-.809-.315-.632-.8h0l5.159-14.388,0-.006.142-.4a.621.621,0,0,1,.624-.4h1.853a.62.62,0,0,1,.624.4l.081.226.063.176,5.159,14.388h-.033c.177.49-.064.8-.632.8H293.52c-.257,0-.433-.037-.651-.527l-.723-2.03c-.016-.049.006,0-.141-.395-.118-.359-.558-.346-.653-.345Zm1.014-3.177h1.907a.205.205,0,0,0,.194-.272l-.721-2.031c-.061-.183-.1-.3-.126-.366l-.069-.183c-.023-.061-.053-.145-.091-.251a.205.205,0,0,0-.387,0l-.979,2.732c-.014.04-.03.08-.04.121a.2.2,0,0,0,.2.248h.111Zm14.359-6.325v11.994h0v.207a.565.565,0,0,1-.632.6h-1.936a.565.565,0,0,1-.632-.6v-12a.205.205,0,0,0-.205-.205h-2.577v0h-.172a.565.565,0,0,1-.633-.6v-.207h0v-1.586h0v-.207a.565.565,0,0,1,.633-.6h9.042a.563.563,0,0,1,.631.535v2.126a.563.563,0,0,1-.631.534h-.172v0Zm5.551,12.21v-14.6h0v-.207a.565.565,0,0,1,.633-.6h1.952a.565.565,0,0,1,.633.6v.207h0v14.388h0v.207a.565.565,0,0,1-.632.6h-1.956A.564.564,0,0,1,308.456,759.633Zm17.07-7.479a6.336,6.336,0,0,0-.274-1.874,4.836,4.836,0,0,0-.811-1.577,3.844,3.844,0,0,0-1.349-1.086,4.218,4.218,0,0,0-1.886-.4,4.089,4.089,0,0,0-1.851.4,3.935,3.935,0,0,0-1.337,1.074,4.684,4.684,0,0,0-.811,1.577,6.45,6.45,0,0,0-.274,1.885,6.53,6.53,0,0,0,.274,1.909,4.815,4.815,0,0,0,.811,1.588,3.879,3.879,0,0,0,1.337,1.086,4.088,4.088,0,0,0,1.851.4,4.217,4.217,0,0,0,1.886-.4,3.85,3.85,0,0,0,1.349-1.086,4.822,4.822,0,0,0,.811-1.588A6.53,6.53,0,0,0,325.526,752.154Zm3.223-.023a9.97,9.97,0,0,1-.48,3.085,7.72,7.72,0,0,1-1.428,2.617,7.075,7.075,0,0,1-2.354,1.816,8.13,8.13,0,0,1-6.536,0,6.943,6.943,0,0,1-2.342-1.816,7.834,7.834,0,0,1-1.417-2.617,9.97,9.97,0,0,1-.48-3.085,9.683,9.683,0,0,1,.48-3.04,7.877,7.877,0,0,1,1.417-2.594,6.824,6.824,0,0,1,2.342-1.805,8.256,8.256,0,0,1,6.536,0,6.951,6.951,0,0,1,2.354,1.805,7.76,7.76,0,0,1,1.428,2.594A9.683,9.683,0,0,1,328.749,752.131Zm12.024,7.248-6.469-8.586a.205.205,0,0,0-.369.124v8.708a.565.565,0,0,1-.632.6h-1.89a.565.565,0,0,1-.632-.6v-14.8a.565.565,0,0,1,.633-.6h1.432c.554.008.629.319,1.068.842l6.532,8.57a.205.205,0,0,0,.369-.124v-8.483h0v-.207a.565.565,0,0,1,.633-.6h1.888a.564.564,0,0,1,.633.586v14.814a.565.565,0,0,1-.632.6h-1.5C341.287,760.213,341.212,759.9,340.773,759.379Z" transform="translate(-98.661 -51.504)" fill="red"/>
  </g>
</svg>
