<svg xmlns="http://www.w3.org/2000/svg" width="178.384" height="44.753" viewBox="0 0 178.384 44.753"><g transform="translate(-25.569 -31.735)"><path d="M66.243,85.432c-.016-.676-.321-.916-.835-.947v-.4l.131-.131v-.606l-.377-.18v-2.2c.426-.673-.065-1.016-.065-1.016q-.05-.95-.1-1.9h0l-.18-.18V76.037l-.114-.18h0l-.114.18v1.836l-.181.18h0q-.049.951-.1,1.9s-.492.344-.066,1.016v2.2l-.376.18v.606l.131.131v.475c-.745.126-.828.2-.836.874-.819.212-.993,1.734-.295,2.026,0,0-.213.939.556,1.016,0,0,.135,3.829-.046,7.792.818.031,1.668.026,2.522-.012-.069-3.949,0-7.781,0-7.781.765,0,.634-1.016.634-1.016.56-.092.56-1.911-.3-2.026m-5.276,13.01a24.644,24.644,0,0,0,9.906-1.126,21.363,21.363,0,0,0,7.819-4.478c.224-.3-.516.148-.553.172a26.751,26.751,0,0,1-17.588,3.538Zm18.619-8.088,2.009.25c-.3.054-.968.69-1.248.856-.2.12-.546-.063-.786-.139-.412-.131-.431-.12-.754.1a7.264,7.264,0,0,0,.6.431l.113.111c-.333.022-.538-.041-.664.19l.549.031-.089.256c.327.084.351-.036.58-.044.21-.007-.073.132.185,0,.082-.042.079-.086.192-.163s2.031-1.046,2.763-1.517c-.1.119-.422.762-.219.937.244-.276.4-.571.633-.871.876-1.138.46-.531,1.594-1.464.287-.237.672-.566.6-.913a2.262,2.262,0,0,0-1.554.348c-.41.266-.827.563-1.2.845-.435.327-.906.282-1.675.35-.311.027-.629.062-.939.09C79.817,90.08,79.725,90.012,79.586,90.354Zm3.064-22.647-5.337,3.116c-.912-1.6-1.837-3.7-2.673-5.442a52.244,52.244,0,0,0-2.7-5.357L66.8,70.693l-5.388-2.947.368,14.426c-1.333-1.147-4.3-4.816-5.508-5.36L54.221,81.77l-8.909-3.217L50.37,88.2a39.782,39.782,0,0,0-4.8,2.314,34.76,34.76,0,0,0,2.983,2.37l6.079,4.758c.477.366,1.018.8,1.53,1.183.271.2.473.381.715.574a6.519,6.519,0,0,1,.734.568l.032,4.808,3.783,0c.219-.244.652-.549.782-.831a17.12,17.12,0,0,0,.991-4.972,22.5,22.5,0,0,0,2.769-.153,40.378,40.378,0,0,0,.379,4.738c.068.391.585.871.79,1.214l3.034,0c.209-.243.622-.546.738-.825a26.129,26.129,0,0,0,.882-6.517c.639-.236,1.263-.5,1.864-.779.081-.038.287-.144.574-.3a68.806,68.806,0,0,0,.8,7.209c.086.389.622.865.845,1.208l2.643,0c.21-.286.609-.658.672-.966a59.827,59.827,0,0,0,.9-9.3l1.575-.614c-.117,2.981.131,7.953,1.159,10.246a2.872,2.872,0,0,0,.593.632l3.037,0c0-.527-.05-4.333.058-4.668.142-.438,10.684-8.419,12.009-9.57a38.772,38.772,0,0,0-4.8-2.316c.4-1.432,4.162-7.562,5.033-9.715l-8.9,3.248a32.639,32.639,0,0,0-2.13-4.914c-1.179.907-6.514,5.755-7.078,6.033ZM71.86,86.222c.105,1.741.145,5.5.019,9.156.67-.194,1.44-.458,2.223-.761-.215-3.1-.375-6.136-.435-7.677Z" transform="translate(-19.743 -28.289)" fill="#fff" fill-rule="evenodd"/><path d="M221.4,92.136V84.2a.775.775,0,0,0-.775-.775h-6.3a.775.775,0,0,0-.775.775v7.941h0v.224a.819.819,0,0,1-.163.511.77.77,0,0,1-.158.152.78.78,0,0,1-.16.089h0l-.01,0a.775.775,0,0,1-.281.053h-3.125a.771.771,0,0,1-.318-.068h0l-.014-.006,0,0-.011-.006-.005,0-.012-.006,0,0a.778.778,0,0,1-.27-.244.828.828,0,0,1-.135-.471V70.6a.83.83,0,0,1,.137-.473.781.781,0,0,1,.236-.223l.015-.009c.02-.011.04-.022.06-.031l0,0,.009,0,.01,0,0,0a.776.776,0,0,1,.3-.06h3.134a.776.776,0,0,1,.261.047l.006,0,.007,0a.773.773,0,0,1,.33.243.817.817,0,0,1,.167.516v.224h0V77.97a.775.775,0,0,0,.775.775h6.3a.775.775,0,0,0,.775-.775V70.831h0v-.224a.823.823,0,0,1,.155-.5.778.778,0,0,1,.17-.166h0l0,0a.786.786,0,0,1,.15-.082h0l.011,0a.772.772,0,0,1,.276-.053h3.134a.772.772,0,0,1,.279.054h0l.012,0,.011,0h0a.774.774,0,0,1,.321.26l0,0h0a.828.828,0,0,1,.142.483v.224h0v21.3h0v.224a.829.829,0,0,1-.14.48.783.783,0,0,1-.233.218c-.02.012-.041.023-.062.034l-.012.006-.005,0-.008,0-.012.005h0a.774.774,0,0,1-.3.06h-2.48c-.161,0-.3.007-.433.006v-.006h-.221c-.043,0-.085-.006-.124-.01a.769.769,0,0,1-.626-.618,2.479,2.479,0,0,1-.017-.279v-.127ZM238.754,93.4a11.888,11.888,0,0,1-1.6-.1,11.038,11.038,0,0,1-3.089-.885,8.842,8.842,0,0,1-2.488-1.686,7.6,7.6,0,0,1-1.686-2.454,8.679,8.679,0,0,1-.685-3.156V70.607a.83.83,0,0,1,.138-.477.782.782,0,0,1,.235-.221.852.852,0,0,1,.077-.041h0l.012-.005.007,0,.006,0a.777.777,0,0,1,.294-.06h3.134a.782.782,0,0,1,.276.052.808.808,0,0,1,.174.094.79.79,0,0,1,.162.158.822.822,0,0,1,.159.506v.224h0V84.722a3.8,3.8,0,0,0,.351,1.686,3.572,3.572,0,0,0,.935,1.2,4.249,4.249,0,0,0,1.386.751,6.967,6.967,0,0,0,1.659.33.794.794,0,0,1,.087.012,1.259,1.259,0,0,0,.158.025h.668a1.251,1.251,0,0,0,.158-.025.8.8,0,0,1,.087-.012,6.967,6.967,0,0,0,1.658-.33,4.453,4.453,0,0,0,1.4-.751,3.479,3.479,0,0,0,.952-1.2,3.8,3.8,0,0,0,.351-1.686V70.6a.829.829,0,0,1,.137-.473.78.78,0,0,1,.312-.263h0l.01,0,.01,0,0,0a.774.774,0,0,1,.3-.06h3.134a.778.778,0,0,1,.261.047l0,0,.009,0a.8.8,0,0,1,.181.1l0,0,0,0a.76.76,0,0,1,.143.141.816.816,0,0,1,.164.513v.224h0V85.123a8.616,8.616,0,0,1-.685,3.172,7.844,7.844,0,0,1-1.686,2.454,8.525,8.525,0,0,1-2.521,1.7,10.74,10.74,0,0,1-3.156.852l-1.067.1c-.023,0-.047,0-.07,0Zm29.206-1.042V82.529a.775.775,0,0,0-1.438-.4l-.015.025q-.751,1.236-1.519,2.471t-1.519,2.438q-.386.617-.741,1.2a.775.775,0,0,1-1.317.011L257.57,82.2a.775.775,0,0,0-1.43.415V92.36a.83.83,0,0,1-.138.477.776.776,0,0,1-.251.231l-.011.006,0,0-.012.007,0,0-.011.006,0,0-.009,0-.009,0,0,0a.774.774,0,0,1-.316.067h-3.058a.771.771,0,0,1-.317-.068h0l-.011,0-.007,0-.007,0-.009,0-.007,0-.009,0-.011-.006,0,0a.779.779,0,0,1-.252-.233.827.827,0,0,1-.137-.475V70.606a.829.829,0,0,1,.138-.477.781.781,0,0,1,.235-.221.809.809,0,0,1,.077-.041h0l.011-.005.008,0,.006,0a.772.772,0,0,1,.3-.06h2.406a.778.778,0,0,1,.173.019.97.97,0,0,1,.5.372l.391.624.012.019,5.647,9.014a.775.775,0,0,0,1.311,0q1.412-2.214,2.846-4.527,1.651-2.664,3.244-5.167a.775.775,0,0,1,.047-.065,1.041,1.041,0,0,1,.214-.186.774.774,0,0,1,.387-.108h2.384a.774.774,0,0,1,.3.06l0,0,.01,0,.01,0h0c.021.01.041.02.06.031l.015.009a.777.777,0,0,1,.236.222.826.826,0,0,1,.137.475V92.361a.831.831,0,0,1-.135.472.781.781,0,0,1-.27.243l0,0-.011.006-.006,0-.011.005-.005,0-.013.006h0a.771.771,0,0,1-.318.068h-3.152A.776.776,0,0,1,267.961,92.362Zm7.8,0V70.606a.826.826,0,0,1,.138-.476.78.78,0,0,1,.235-.222q.037-.022.075-.04h0l.01,0,.009,0,0,0a.774.774,0,0,1,.3-.06h8.646a6.4,6.4,0,0,1,2.638.551,7.317,7.317,0,0,1,2.17,1.469,6.763,6.763,0,0,1,2,4.825,6.35,6.35,0,0,1-.368,2.071,7.832,7.832,0,0,1-.6,1.344.774.774,0,0,0,.134.941,6.476,6.476,0,0,1,1.4,1.973,7.175,7.175,0,0,1,.634,3.022,6.941,6.941,0,0,1-.568,2.805,7.169,7.169,0,0,1-1.553,2.271,7.514,7.514,0,0,1-2.287,1.536,6.946,6.946,0,0,1-2.8.567h-9.47A.776.776,0,0,1,275.763,92.36Zm4.675-3.865h5.543a2.212,2.212,0,0,0,1-.233,2.88,2.88,0,0,0,1.386-1.469,2.58,2.58,0,0,0,.217-1.035,2.06,2.06,0,0,0-.768-1.669,2.791,2.791,0,0,0-1.837-.634h-4.768a.775.775,0,0,0-.775.775Zm0-14.025V78a.775.775,0,0,0,.775.775h4a2.037,2.037,0,0,0,1.519-.635,2.121,2.121,0,0,0,.618-1.536,2.051,2.051,0,0,0-.618-1.536,2.1,2.1,0,0,0-1.519-.6ZM296.32,92.136V70.6a.828.828,0,0,1,.135-.469.773.773,0,0,1,.253-.234l.012-.007h0l.014-.007h0l.013-.007,0,0,.011,0,.007,0,.007,0,.012-.005h0a.773.773,0,0,1,.3-.061h3.134a.792.792,0,0,1,.149.015.778.778,0,0,1,.618.8v.224h0V87.72a.775.775,0,0,0,.775.775H310.5a.778.778,0,0,1,.317.068h0l.012.006.006,0,.009,0,.007,0,.009,0,.007,0a.774.774,0,0,1,.268.242.829.829,0,0,1,.136.474V92.36a.829.829,0,0,1-.136.474.772.772,0,0,1-.269.242l-.006,0-.01.005-.007,0-.01,0-.006,0-.013.006h0a.769.769,0,0,1-.318.068H297.068a.776.776,0,0,1-.748-.81v-.224Zm18.086,0V70.607a.827.827,0,0,1,.138-.477.779.779,0,0,1,.235-.221.72.72,0,0,1,.076-.041h0l.011,0,.008,0,.005,0a.773.773,0,0,1,.295-.06h13.352a.77.77,0,0,1,.314.069h0l.014.007,0,0,.012.006,0,0a.777.777,0,0,1,.294.264.83.83,0,0,1,.128.449v3.1a.775.775,0,0,1-.775.775h-8.668a.775.775,0,0,0-.775.775V77.97a.775.775,0,0,0,.775.775h7.766a.771.771,0,0,1,.317.068h0l.012.006.006,0,.009,0,.008,0,.009,0,.007,0a.781.781,0,0,1,.268.242.83.83,0,0,1,.136.474V82.61a.836.836,0,0,1-.127.461.774.774,0,0,1-.648.35h-7.766a.775.775,0,0,0-.775.775V87.72a.775.775,0,0,0,.775.775h8.768a.775.775,0,0,1,.775.775V92.36a.828.828,0,0,1-.136.474.779.779,0,0,1-.268.242l-.007,0-.01,0-.007,0-.009,0-.006,0-.012.006h0a.771.771,0,0,1-.318.068h-13.47a.776.776,0,0,1-.748-.81v-.224Z" transform="translate(-125.447 -34.604)" fill="#fff"/><path d="M208.829,159.305v-13.28l0-.018,0-.018,0-.017,0-.017,0-.017c0-.005,0-.011,0-.016l0-.016,0-.015.005-.015.005-.014.006-.014.006-.013h0l.006-.013.007-.013a.546.546,0,0,1,.5-.24h1.745a.5.5,0,0,1,.564.516v13.236a.5.5,0,0,1-.563.517h-1.747a.5.5,0,0,1-.564-.533m14.716.013V152.3a.183.183,0,0,0-.34-.094q-.267.444-.547.9-.459.754-.927,1.508t-.928,1.488q-.37.592-.694,1.131a.183.183,0,0,1-.312,0l-3.132-4.943a.183.183,0,0,0-.338.1v6.908a.5.5,0,0,1-.564.533h-1.686a.5.5,0,0,1-.564-.53V146.1a.5.5,0,0,1,.565-.531h1.159c.493.008.606.27.949.751l3.616,5.771a.183.183,0,0,0,.309,0q.983-1.536,1.985-3.151.851-1.373,1.676-2.676c.354-.434.434-.691.909-.7h1.152a.5.5,0,0,1,.564.533v.185h0v13.018a.5.5,0,0,1-.564.533h-1.726A.5.5,0,0,1,223.545,159.318Zm14.7.16V152.3a.183.183,0,0,0-.34-.094l-.547.9q-.459.754-.928,1.508t-.928,1.488q-.37.592-.694,1.131a.183.183,0,0,1-.311,0l-3.132-4.943a.183.183,0,0,0-.338.1v6.723H231v.185a.5.5,0,0,1-.564.533h-1.67a.5.5,0,0,1-.555-.417V146.095a.5.5,0,0,1,.565-.525h1.159c.493.008.606.27.949.751l3.616,5.771a.183.183,0,0,0,.309,0q.984-1.536,1.985-3.151.833-1.345,1.643-2.622c.33-.423.457-.745.962-.751h1.12a.5.5,0,0,1,.565.533v.185h.013v13.018a.5.5,0,0,1-.564.533h-1.747A.511.511,0,0,1,238.24,159.477Zm4.666-.152V146.083a.5.5,0,0,1,.564-.513h1.745a.5.5,0,0,1,.564.533v13.2a.5.5,0,0,1-.564.533h-1.747A.5.5,0,0,1,242.906,159.325Zm14.359-.068a8.472,8.472,0,0,1-3.272.663,6.144,6.144,0,0,1-2.854-.622,5.875,5.875,0,0,1-1.987-1.641,7.051,7.051,0,0,1-1.172-2.334,9.5,9.5,0,0,1-.387-2.7,9.4,9.4,0,0,1,.387-2.69,6.951,6.951,0,0,1,1.172-2.314A5.824,5.824,0,0,1,251.139,146a6.229,6.229,0,0,1,2.854-.611,6.119,6.119,0,0,1,3.078.764,8.938,8.938,0,0,1,2.01,1.582l.126.15a.484.484,0,0,1-.02.706l-.188.167-1.021.9-.148.129a.484.484,0,0,1-.726-.038l-.041-.044h0l-.1-.109,0,0h0a4.411,4.411,0,0,0-1.27-.963,3.9,3.9,0,0,0-1.651-.387,3.333,3.333,0,0,0-1.6.367,3.254,3.254,0,0,0-1.121.978,4.312,4.312,0,0,0-.652,1.407,6.327,6.327,0,0,0-.214,1.651,6.44,6.44,0,0,0,.214,1.661,4.3,4.3,0,0,0,.652,1.417,3.35,3.35,0,0,0,1.121.989,3.261,3.261,0,0,0,1.6.377q.347,0,.754-.03c.792-.059,2.242-.493,2.242-1.458v-1.276a.183.183,0,0,0-.183-.183H253.9a.491.491,0,0,1-.5-.529v-1.484a.5.5,0,0,1,.562-.489h5.37a.5.5,0,0,1,.55.533v4.443C259.884,158,258.4,158.777,257.264,159.257Zm9.059-4.882h-1.59a.183.183,0,0,0-.183.183v4.775a.5.5,0,0,1-.563.5H262.26a.5.5,0,0,1-.564-.531V146.287h.008V146.1a.5.5,0,0,1,.565-.533h4.951a4.187,4.187,0,0,1,1.692.346,4.463,4.463,0,0,1,2.344,2.354,4.313,4.313,0,0,1,.347,1.723,4.226,4.226,0,0,1-.612,2.232,4.493,4.493,0,0,1-1.448,1.493.183.183,0,0,0-.063.239l2.76,5.271.068.129c.153.379-.247.481-.464.482h-2.328c-.133-.01-.234-.067-.394-.359Zm-1.773-2.854h2.671a1.49,1.49,0,0,0,1.08-.438,1.463,1.463,0,0,0,.448-1.091,1.5,1.5,0,0,0-.448-1.1,1.548,1.548,0,0,0-1.08-.469h-2.487a.183.183,0,0,0-.183.183Zm14.476,5.376c-.077,0-.479-.017-.586.308-.216.588-.022.073-.245.7q-.164.46-.322.906v0q-.09.254-.177.5h0c-.206.487-.365.522-.6.522h-1.9c-.507,0-.721-.281-.564-.718h0l4.6-12.833,0-.006.127-.352a.553.553,0,0,1,.556-.359h1.653a.553.553,0,0,1,.556.359l.072.2.056.157,4.6,12.833h-.029c.157.438-.057.718-.564.718h-1.9c-.23,0-.386-.033-.581-.47l-.645-1.811c-.014-.045.006,0-.126-.352-.105-.321-.5-.308-.582-.308Zm.9-2.833h1.7a.183.183,0,0,0,.173-.243l-.643-1.811c-.054-.163-.092-.272-.112-.326l-.061-.163q-.03-.082-.081-.224a.183.183,0,0,0-.345,0l-.873,2.437c-.012.036-.027.071-.036.108a.183.183,0,0,0,.179.221h.1Zm12.807-5.642v10.7h0v.185a.5.5,0,0,1-.564.533h-1.726a.5.5,0,0,1-.564-.533v-10.7a.183.183,0,0,0-.183-.183h-2.3v0h-.154a.5.5,0,0,1-.565-.534V147.7h0v-1.415h0V146.1a.5.5,0,0,1,.565-.533h8.065a.5.5,0,0,1,.563.477v1.9a.5.5,0,0,1-.563.477h-.154v0Zm4.951,10.891V146.287h0V146.1a.5.5,0,0,1,.565-.533H300a.5.5,0,0,1,.564.533v.185h0V159.12h0v.185a.5.5,0,0,1-.564.533h-1.744A.5.5,0,0,1,297.689,159.314Zm15.225-6.671a5.651,5.651,0,0,0-.244-1.672,4.323,4.323,0,0,0-.723-1.407,3.432,3.432,0,0,0-1.2-.968,3.761,3.761,0,0,0-1.682-.357,3.647,3.647,0,0,0-1.651.357,3.508,3.508,0,0,0-1.193.958,4.184,4.184,0,0,0-.724,1.407,5.752,5.752,0,0,0-.244,1.682,5.825,5.825,0,0,0,.244,1.7,4.3,4.3,0,0,0,.724,1.416,3.453,3.453,0,0,0,1.193.968,3.642,3.642,0,0,0,1.651.357,3.756,3.756,0,0,0,1.682-.357,3.428,3.428,0,0,0,1.2-.968,4.3,4.3,0,0,0,.723-1.416A5.827,5.827,0,0,0,312.914,152.643Zm2.874-.021a8.892,8.892,0,0,1-.428,2.752,6.886,6.886,0,0,1-1.274,2.334,6.317,6.317,0,0,1-2.1,1.621,7.252,7.252,0,0,1-5.83,0,6.2,6.2,0,0,1-2.089-1.621,6.984,6.984,0,0,1-1.264-2.334,8.892,8.892,0,0,1-.428-2.752,8.636,8.636,0,0,1,.428-2.711,7.014,7.014,0,0,1,1.264-2.314,6.081,6.081,0,0,1,2.089-1.61,7.365,7.365,0,0,1,5.83,0,6.2,6.2,0,0,1,2.1,1.61,6.915,6.915,0,0,1,1.274,2.314A8.636,8.636,0,0,1,315.788,152.622Zm10.725,6.465-5.77-7.658a.183.183,0,0,0-.329.11v7.767a.5.5,0,0,1-.564.533h-1.686a.5.5,0,0,1-.564-.533V146.1a.5.5,0,0,1,.564-.533h1.277c.494.007.561.284.953.751l5.826,7.644a.183.183,0,0,0,.329-.111v-7.566h0V146.1a.5.5,0,0,1,.565-.533H328.8a.5.5,0,0,1,.564.523v13.213a.5.5,0,0,1-.564.533h-1.334C326.972,159.83,326.9,159.554,326.513,159.087Z" transform="translate(-125.414 -83.453)" fill="#fff"/></g></svg>