<svg xmlns="http://www.w3.org/2000/svg" width="24" height="16.201" viewBox="0 0 24 16.201"><path d="M.072,18.834V5.5q0-.023.069-.44l7.846,6.712L.165,19.3a1.961,1.961,0,0,1-.093-.463Zm1.041-14.7a1,1,0,0,1,.393-.069h21.13a1.311,1.311,0,0,1,.417.069l-7.869,6.735-1.041.833-2.06,1.689-2.06-1.689-1.041-.833ZM1.137,20.2l7.892-7.568,3.055,2.476,3.055-2.476L23.031,20.2a1.111,1.111,0,0,1-.393.069H1.507a1.048,1.048,0,0,1-.37-.069ZM16.18,11.775,24,5.063a1.381,1.381,0,0,1,.069.44V18.834A1.774,1.774,0,0,1,24,19.3Z" transform="translate(-0.072 -4.068)" fill="red"/></svg>