<svg xmlns="http://www.w3.org/2000/svg" width="76.566" height="78" viewBox="0 0 76.566 78"><g transform="translate(-21.996 -19.25)"><path d="M97.884,60.952,79.216,49V37.52a3.9,3.9,0,0,0-3.968-3.884H61.509v-3.2a34.249,34.249,0,0,0,6.048.99c.113,0,.22,0,.319-.01h0a3.269,3.269,0,0,0,2.654-1.46,3.745,3.745,0,0,0-.067-3.544c-.188-.431-.015-.748,1.335-1.666.861-.586,1.932-1.315,1.631-2.525-.359-1.44-2.366-2.182-7.161-2.646-2.941-.285-5.771-.328-5.89-.329a1.162,1.162,0,0,0-.822.33,1.148,1.148,0,0,0-.342.818V33.637H45.537a3.958,3.958,0,0,0-4.03,3.884V48.928L22.647,60.951A1.439,1.439,0,0,0,22,62.2v2.823a1.476,1.476,0,0,0,2.255,1.253l2.992-1.86V95.4a1.844,1.844,0,0,0,1.8,1.848H91.676a1.844,1.844,0,0,0,1.8-1.848V64.508l2.826,1.762a1.476,1.476,0,0,0,2.256-1.253V62.195a1.468,1.468,0,0,0-.678-1.243ZM70.732,22.7l-.225.154C69.4,23.6,67.344,25,68.359,27.333a1.855,1.855,0,0,1,.209,1.436,1.143,1.143,0,0,1-.848.361h0a32.3,32.3,0,0,1-6.211-1.049v-6.5c.984.035,2.474.1,4.019.239A21.931,21.931,0,0,1,70.732,22.7ZM65.608,76.1H54.787a1.848,1.848,0,0,0-1.8,1.853v17H48.065V93.587a1.806,1.806,0,0,0-1.26-1.719l-.7-13.225a1.8,1.8,0,0,0,.817-1.508V75.155a1.8,1.8,0,0,0-.82-1.51V68.822L60.339,59.9l14.122,8.885v4.856a1.8,1.8,0,0,0-.82,1.51v1.98a1.8,1.8,0,0,0,1.037,1.63l-.7,13.048a1.805,1.805,0,0,0-1.489,1.774v1.368H67.412v-17A1.848,1.848,0,0,0,65.608,76.1ZM43.8,70.259v3.054H42.655V70.978Zm-1.967,6.333v-.984h2.787v.984Zm.933,2.3h1.05L44.5,91.839H42.083Zm36.121-2.3H75.937v-.984h2.951Zm-1.921,2.3h1.05L78.7,91.839H76.283Zm1.1-5.574H76.757V70.233l1.312.825ZM60.952,57.578a1.148,1.148,0,0,0-1.22,0l-23.963,15V71.7L60.34,56.312,84.79,71.7v.881ZM45.537,35.932H75.249a1.607,1.607,0,0,1,1.672,1.589V64.03L60.954,53.986a1.208,1.208,0,0,0-1.254,0L43.8,63.917v-26.4A1.662,1.662,0,0,1,45.537,35.932ZM24.292,62.645l17.215-11V52.8L24.292,63.543Zm5.246.34,11.968-7.48v9.849l-7.374,4.638a1.438,1.438,0,0,0-.659,1.25v2.819a1.476,1.476,0,0,0,2.259,1.251l4.627-2.9v1.231a1.8,1.8,0,0,0-.82,1.51v1.98a1.805,1.805,0,0,0,.941,1.583l-.7,13.115a1.805,1.805,0,0,0-1.39,1.754v1.367H29.539ZM40.688,94.954v-.82H45.77v.82Zm14.592,0V78.4h9.837V94.954Zm19.51,0v-.82h5.246v.82Zm16.4,0H82.331V93.587A1.805,1.805,0,0,0,81,91.849l-.7-13.168a1.8,1.8,0,0,0,.881-1.546v-1.98a1.8,1.8,0,0,0-.82-1.51V72.5l4.461,2.806h0a1.476,1.476,0,0,0,2.261-1.249V71.242a1.467,1.467,0,0,0-.689-1.249l-7.181-4.519v-9.86l11.968,7.463ZM96.267,63.54,79.216,52.909V51.726L96.267,62.643Z" transform="translate(0 0)" fill="#e31220"/><path d="M195.511,133.8a1.8,1.8,0,0,0-1.8-1.8H167.8a1.8,1.8,0,0,0-1.8,1.8v6.886a1.8,1.8,0,0,0,1.8,1.8h25.9a1.8,1.8,0,0,0,1.8-1.8ZM168.3,134.3h24.921v6.066H168.3Z" transform="translate(-120.394 -94.265)" fill="#e31220"/></g></svg>