<svg xmlns="http://www.w3.org/2000/svg" width="24" height="19.201" viewBox="0 0 24 19.201"><path d="M8.4,9.6A4.8,4.8,0,1,0,3.6,4.8,4.8,4.8,0,0,0,8.4,9.6Zm3.36,1.2h-.626a6.528,6.528,0,0,1-5.468,0H5.04A5.041,5.041,0,0,0,0,15.841V17.4a1.8,1.8,0,0,0,1.8,1.8H12.109a1.8,1.8,0,0,1-.1-.8l.255-2.284.045-.416.3-.3,2.9-2.9A4.989,4.989,0,0,0,11.76,10.8Zm1.7,5.449L13.2,18.537a.6.6,0,0,0,.66.66l2.284-.255,5.171-5.171-2.689-2.689-5.171,5.168Zm10.279-6.165L22.317,8.663a.9.9,0,0,0-1.268,0L19.632,10.08l-.154.154,2.693,2.689,1.568-1.568a.9.9,0,0,0,0-1.271Z" fill="#dbdbdb"/></svg>